# xmcd CD database file
#
# Track frame offsets:
#	150
#	18615
#	40239
#
# Disc length: 782 seconds
#
# Revision: 0
# Processed by: cddbd v1.5.1PL0 Copyright (c) Steve Scherf et al.
# Submitted via: CDex 1.51
#
DISCID=1e030c03
DTITLE=Berryz工房 - スッペシャル ジェネレ〜ション
DYEAR=2005
DGENRE=JPop
TTITLE0=スッペシャル ジェネレ〜ション
TTITLE1=恋してる時はいつも…
TTITLE2=スッペシャル ジェネレ〜ション (Instrumental)
EXTD=YEAR: 2005
EXTT0=
EXTT1=
EXTT2=
PLAYORDER=
